<svg width="469" height="157" viewBox="0 0 469 157" fill="none" xmlns="http://www.w3.org/2000/svg">
<path fill-rule="evenodd" clip-rule="evenodd" d="M0 5.83114C0 2.61069 2.61516 0 5.84112 0H88.3013C108.569 0 125 16.4306 125 36.6987C125 56.9669 108.569 73.3974 88.3013 73.3974H18.3995L8.71123 37.8203H81.0397V43.8254L94.8029 33.2986L81.0397 22.7718V28.2049H6.09279L0 5.83114Z" fill="#0458F2"/>
<path d="M60.8975 59.2949L89.7436 67.9488L125 107.692H60.8975V59.2949Z" fill="#0458F2"/>
<path d="M0 5.76904L83.9475 50.4462C90.4734 53.9193 94.5513 60.709 94.5513 68.1015V140.081C94.5513 147.626 86.5139 152.453 79.8532 148.908L10.6038 112.053C4.07786 108.58 0 101.791 0 94.3981V5.76904Z" fill="url(#paint0_linear_62_202)"/>
<path d="M0 37.8952V27.1411L77.3408 70.48V81.0895L0 37.8952Z" fill="white"/>
<path d="M66.0254 117.949L77.5639 124.359V135.897L66.0254 129.487V117.949Z" fill="white"/>
<path d="M146.648 100L155 31.84H178.808C185.336 31.84 190.168 33.536 193.304 36.928C196.44 40.32 198.008 44.896 198.008 50.656C198.008 58.848 195.608 65.408 190.808 70.336C186.072 75.264 179.416 77.728 170.84 77.728H164.408L161.72 100H146.648ZM166.136 64.192H171.608C174.808 64.192 177.336 63.104 179.192 60.928C181.112 58.752 182.072 55.904 182.072 52.384C182.072 50.08 181.4 48.352 180.056 47.2C178.712 45.984 176.984 45.376 174.872 45.376H168.44L166.136 64.192ZM215.044 100.864C210.18 100.864 206.404 99.072 203.716 95.488C201.092 91.904 199.78 87.296 199.78 81.664C199.78 73.344 201.924 66.368 206.212 60.736C210.5 55.04 215.748 52.192 221.956 52.192C226.692 52.192 230.372 53.568 232.996 56.32H233.284L233.668 53.056H248.164L242.404 100H227.908L228.772 93.088L228.484 92.992C224.836 98.24 220.356 100.864 215.044 100.864ZM219.652 88.096C222.34 88.096 224.868 86.464 227.236 83.2C229.668 79.872 231.268 75.392 232.036 69.76L232.228 68.416C230.116 66.176 227.524 65.056 224.452 65.056C221.444 65.056 218.98 66.688 217.06 69.952C215.204 73.216 214.276 76.768 214.276 80.608C214.276 82.848 214.756 84.672 215.716 86.08C216.74 87.424 218.052 88.096 219.652 88.096ZM285.098 53.056H299.402L294.41 93.664C292.362 111.136 283.53 119.872 267.914 119.872C261.578 119.872 255.914 118.336 250.922 115.264L255.434 104.416C259.146 106.848 263.05 108.064 267.146 108.064C270.794 108.064 273.642 107.04 275.69 104.992C277.802 103.008 279.274 99.136 280.106 93.376V93.28L279.818 93.184C276.042 98.304 271.402 100.864 265.898 100.864C256.106 100.864 252.106 94.656 253.898 82.24L257.93 53.056H272.234L268.778 77.92C268.266 81.696 268.202 84.32 268.586 85.792C269.034 87.264 270.122 88 271.85 88C273.962 88 276.138 86.592 278.378 83.776C280.682 80.896 282.026 77.792 282.41 74.464L285.098 53.056ZM304.699 100L309.019 64.672H305.083L306.523 53.056H310.459L311.419 45.184C312.763 34.048 318.139 28.48 327.547 28.48C331.963 28.48 335.675 29.664 338.683 32.032L335.131 42.592C333.467 41.44 331.835 40.864 330.235 40.864C328.891 40.864 327.867 41.376 327.163 42.4C326.459 43.36 325.915 45.312 325.531 48.256L324.955 53.056H332.443L331.003 64.672H323.419L319.195 100H304.699ZM346.907 100.864C337.115 100.864 333.115 94.656 334.907 82.24L338.939 53.056H353.243L349.691 77.92C349.179 81.696 349.147 84.32 349.595 85.792C350.043 87.264 351.099 88 352.763 88C354.811 88 356.955 86.624 359.195 83.872C361.499 81.056 362.875 77.952 363.323 74.56L365.915 53.056H380.315L374.555 100H360.443L361.019 93.088H360.827C356.987 98.272 352.347 100.864 346.907 100.864ZM385.121 100L390.881 53.056H405.281L404.417 59.488H404.609C408.321 54.624 412.801 52.192 418.049 52.192L416.033 68.128C412.577 66.848 409.505 67.456 406.817 69.952C404.193 72.448 402.465 76.448 401.633 81.952L399.521 100H385.121ZM433.669 100.864C428.805 100.864 425.029 99.072 422.341 95.488C419.717 91.904 418.405 87.296 418.405 81.664C418.405 73.344 420.549 66.368 424.837 60.736C429.125 55.04 434.373 52.192 440.581 52.192C445.317 52.192 448.997 53.568 451.621 56.32H451.909L452.293 53.056H466.789L461.029 100H446.533L447.397 93.088L447.109 92.992C443.461 98.24 438.981 100.864 433.669 100.864ZM438.277 88.096C440.965 88.096 443.493 86.464 445.861 83.2C448.293 79.872 449.893 75.392 450.661 69.76L450.853 68.416C448.741 66.176 446.149 65.056 443.077 65.056C440.069 65.056 437.605 66.688 435.685 69.952C433.829 73.216 432.901 76.768 432.901 80.608C432.901 82.848 433.381 84.672 434.341 86.08C435.365 87.424 436.677 88.096 438.277 88.096Z" fill="#1D0458"/>
<defs>
<linearGradient id="paint0_linear_62_202" x1="94.8718" y1="92.628" x2="4.80413e-06" y2="50.6408" gradientUnits="userSpaceOnUse">
<stop stop-color="#38B4FF"/>
<stop offset="1" stop-color="#55DAFF"/>
</linearGradient>
</defs>
</svg>
