<svg width="1022" height="280" viewBox="0 0 1022 280" fill="none" xmlns="http://www.w3.org/2000/svg">
<g filter="url(#filter0_i_1388_58)">
<path fill-rule="evenodd" clip-rule="evenodd" d="M0 10.8579C0 4.8613 4.86007 0 10.8553 0H164.101C201.767 0 232.303 30.5949 232.303 68.3355C232.303 106.076 201.767 136.67 164.101 136.67H34.1941L16.1891 70.424H150.606V81.6059L176.184 62.0043L150.606 42.4027V52.5195H11.323L0 10.8579Z" fill="#0458F2"/>
<path d="M113.173 110.412L166.781 126.527L232.302 200.531H113.173V110.412Z" fill="#0458F2"/>
<path d="M0 10.7422L156.01 93.9342C168.138 100.401 175.716 113.044 175.716 126.81V260.84C175.716 274.889 160.779 283.878 148.401 277.277L19.7063 208.652C7.57839 202.185 0 189.541 0 175.775V10.7422Z" fill="url(#paint0_linear_1388_58)"/>
<path d="M0 70.5641V50.5391L143.732 131.239V150.995L0 70.5641Z" fill="white"/>
<path d="M122.703 219.629L144.147 231.565V253.049L122.703 241.113V219.629Z" fill="white"/>
<path d="M346.113 192.911C342.544 192.911 339.472 191.719 336.895 189.336C334.317 186.753 333.029 183.774 333.029 180.398V88.6351C333.029 82.8751 334.813 78.2075 338.382 74.6323C342.149 71.0571 347.103 69.2695 353.249 69.2695H382.984C395.076 69.2695 404.789 72.8447 412.124 79.9951C419.656 87.1454 423.423 96.0833 423.423 106.809C423.423 113.165 421.737 119.123 418.368 124.685C414.999 130.247 410.141 134.716 403.798 138.092C406.573 139.483 409.052 141.369 411.232 143.752C413.611 146.136 415.493 149.016 416.881 152.392L426.694 175.035C427.684 177.419 428.181 179.405 428.181 180.994C428.181 184.569 426.792 187.548 424.018 189.932C421.243 192.116 418.169 193.209 414.8 193.209C412.62 193.209 410.438 192.613 408.258 191.421C406.275 190.23 404.69 188.343 403.501 185.761L392.201 158.649C390.219 153.882 387.542 150.506 384.173 148.519C381.001 146.335 377.236 145.242 372.874 145.242H365.143C361.179 145.242 359.196 147.229 359.196 151.201V180.398C359.196 183.774 357.908 186.753 355.33 189.336C352.753 191.719 349.681 192.911 346.113 192.911ZM363.656 122.897H381.794C386.751 122.897 390.616 121.507 393.391 118.726C396.364 115.945 397.851 112.37 397.851 108.001C397.851 103.432 396.364 99.8572 393.391 97.2751C390.616 94.4944 386.751 93.104 381.794 93.104H363.656C360.683 93.104 359.196 94.5937 359.196 97.573V118.428C359.196 121.407 360.683 122.897 363.656 122.897ZM477.347 192.911C464.067 192.911 453.262 188.74 444.936 180.398C436.809 171.857 432.745 160.535 432.745 146.434C432.745 132.332 436.711 121.209 444.639 113.065C452.767 104.723 463.372 100.552 476.455 100.552C485.773 100.552 493.9 103.83 500.837 110.384C501.631 108.001 503.118 106.014 505.298 104.425C507.479 102.836 510.055 102.042 513.029 102.042C516.995 102.042 520.165 103.234 522.544 105.617C525.121 107.802 526.409 110.483 526.409 113.661V181.292C526.409 184.668 525.121 187.449 522.544 189.634C520.165 191.818 516.995 192.911 513.029 192.911C506.487 192.911 502.425 190.03 500.837 184.271C494.495 190.03 486.665 192.911 477.347 192.911ZM479.428 168.779C485.773 168.779 490.828 166.693 494.593 162.522C498.36 158.152 500.243 152.789 500.243 146.434C500.243 139.879 498.36 134.615 494.593 130.643C490.828 126.672 485.773 124.685 479.428 124.685C473.285 124.685 468.23 126.672 464.264 130.643C460.499 134.615 458.614 139.879 458.614 146.434C458.614 152.789 460.499 158.152 464.264 162.522C468.23 166.693 473.285 168.779 479.428 168.779ZM562.126 192.911C558.359 192.911 555.189 191.818 552.611 189.634C550.034 187.449 548.746 184.668 548.746 181.292V113.661C548.746 110.483 549.935 107.802 552.314 105.617C554.892 103.234 558.162 102.042 562.126 102.042C566.685 102.042 570.155 103.631 572.534 106.809C573.524 108.001 574.119 109.192 574.318 110.384C576.696 107.405 579.869 105.021 583.833 103.234C587.797 101.446 592.257 100.552 597.213 100.552C610.693 100.552 620.407 105.021 626.354 113.959C629.922 109.589 634.283 106.312 639.437 104.127C644.59 101.744 649.942 100.552 655.494 100.552C666.594 100.552 675.317 103.83 681.66 110.384C688.202 116.939 691.473 127.366 691.473 141.667V181.887C691.473 185.066 690.185 187.747 687.607 189.932C685.228 191.918 682.156 192.911 678.389 192.911C674.622 192.911 671.452 191.818 668.874 189.634C666.495 187.449 665.306 184.668 665.306 181.292V144.944C665.306 137.594 664.018 132.332 661.441 129.154C658.863 125.975 655.196 124.387 650.439 124.387C645.681 124.387 641.816 125.876 638.842 128.856C636.067 131.636 634.183 135.014 633.192 138.985V181.887C633.192 185.066 631.905 187.747 629.327 189.932C626.948 191.918 623.876 192.911 620.109 192.911C616.342 192.911 613.172 191.818 610.594 189.634C608.215 187.449 607.026 184.668 607.026 181.292V144.944C607.026 137.594 605.738 132.332 603.16 129.154C600.583 125.975 596.916 124.387 592.159 124.387C587.6 124.387 583.833 125.876 580.859 128.856C577.886 131.636 575.903 134.913 574.912 138.687V180.994C574.912 184.37 573.624 187.25 571.047 189.634C568.668 191.818 565.695 192.911 562.126 192.911ZM761.851 192.911C753.13 192.911 745.794 190.23 739.847 184.867V221.214C739.847 224.59 738.559 227.372 735.982 229.556C733.603 231.94 730.63 233.132 727.061 233.132C723.294 233.132 720.124 232.039 717.546 229.854C714.969 227.67 713.681 224.888 713.681 221.512V113.661C713.681 110.483 714.87 107.802 717.249 105.617C719.827 103.234 723.097 102.042 727.061 102.042C730.035 102.042 732.613 102.836 734.792 104.425C736.972 106.014 738.459 108.001 739.253 110.384C745.993 103.83 753.823 100.552 762.743 100.552C775.826 100.552 786.234 104.723 793.965 113.065C801.895 121.209 805.859 132.332 805.859 146.434C805.859 160.535 801.895 171.857 793.965 180.398C786.035 188.74 775.33 192.911 761.851 192.911ZM759.77 168.779C765.916 168.779 770.772 166.693 774.34 162.522C778.107 158.152 779.989 152.789 779.989 146.434C779.989 139.879 778.107 134.615 774.34 130.643C770.772 126.672 765.916 124.685 759.77 124.685C753.823 124.685 748.967 126.672 745.2 130.643C741.631 134.615 739.847 139.879 739.847 146.434C739.847 152.789 741.631 158.152 745.2 162.522C748.967 166.693 753.823 168.779 759.77 168.779ZM865.293 192.911C852.013 192.911 841.208 188.74 832.882 180.398C824.755 171.857 820.691 160.535 820.691 146.434C820.691 132.332 824.657 121.209 832.585 113.065C840.713 104.723 851.317 100.552 864.401 100.552C873.719 100.552 881.846 103.83 888.783 110.384C889.577 108.001 891.064 106.014 893.243 104.425C895.425 102.836 898.001 102.042 900.975 102.042C904.94 102.042 908.111 103.234 910.49 105.617C913.067 107.802 914.355 110.483 914.355 113.661V181.292C914.355 184.668 913.067 187.449 910.49 189.634C908.111 191.818 904.94 192.911 900.975 192.911C894.433 192.911 890.37 190.03 888.783 184.271C882.44 190.03 874.611 192.911 865.293 192.911ZM867.374 168.779C873.719 168.779 878.774 166.693 882.539 162.522C886.306 158.152 888.189 152.789 888.189 146.434C888.189 139.879 886.306 134.615 882.539 130.643C878.774 126.672 873.719 124.685 867.374 124.685C861.23 124.685 856.175 126.672 852.21 130.643C848.444 134.615 846.56 139.879 846.56 146.434C846.56 152.789 848.444 158.152 852.21 162.522C856.175 166.693 861.23 168.779 867.374 168.779ZM927.771 112.47C927.771 108.497 929.159 105.518 931.934 103.532C934.709 101.545 937.881 100.552 941.449 100.552C944.224 100.552 946.602 101.347 948.585 102.936C950.765 104.326 952.252 106.312 953.046 108.894L971.481 153.882C972.472 156.465 973.86 157.755 975.644 157.755C977.428 157.755 978.716 156.465 979.51 153.882L995.566 108.894C996.557 106.114 998.144 104.028 1000.32 102.638C1002.7 101.247 1005.18 100.552 1007.76 100.552C1011.13 100.552 1014.2 101.645 1016.98 103.83C1019.95 106.014 1021.44 108.894 1021.44 112.47C1021.44 114.456 1021.04 116.343 1020.25 118.13L973.86 225.385C972.472 228.365 970.688 230.45 968.508 231.642C966.525 233.033 964.443 233.727 962.263 233.727C958.695 233.727 955.424 232.437 952.451 229.854C949.676 227.471 948.288 224.59 948.288 221.214C948.288 219.427 948.684 217.838 949.478 216.447L965.534 187.846C962.165 186.854 959.489 184.37 957.506 180.398L928.663 117.832C928.068 116.045 927.771 114.257 927.771 112.47Z" fill="#1D0458"/>
</g>
<defs>
<filter id="filter0_i_1388_58" x="0" y="0" width="1021.44" height="283.484" filterUnits="userSpaceOnUse" color-interpolation-filters="sRGB">
<feFlood flood-opacity="0" result="BackgroundImageFix"/>
<feBlend mode="normal" in="SourceGraphic" in2="BackgroundImageFix" result="shape"/>
<feColorMatrix in="SourceAlpha" type="matrix" values="0 0 0 0 0 0 0 0 0 0 0 0 0 0 0 0 0 0 127 0" result="hardAlpha"/>
<feOffset dy="4"/>
<feGaussianBlur stdDeviation="2"/>
<feComposite in2="hardAlpha" operator="arithmetic" k2="-1" k3="1"/>
<feColorMatrix type="matrix" values="0 0 0 0 0 0 0 0 0 0 0 0 0 0 0 0 0 0 0.25 0"/>
<feBlend mode="normal" in2="shape" result="effect1_innerShadow_1388_58"/>
</filter>
<linearGradient id="paint0_linear_1388_58" x1="176.312" y1="172.479" x2="-0.113057" y2="94.5525" gradientUnits="userSpaceOnUse">
<stop stop-color="#38B4FF"/>
<stop offset="1" stop-color="#55DAFF"/>
</linearGradient>
</defs>
</svg>
